<svg version="1.1" id="Layer_1" xmlns="http://www.w3.org/2000/svg" xmlns:xlink="http://www.w3.org/1999/xlink" x="0px" y="0px"
	 width="100%" viewBox="0 0 590 106" enable-background="new 0 0 590 106" xml:space="preserve">
<path fill="#FEFEFE" opacity="1.000000" stroke="none" 
	d="
M567.000000,107.000000 
	C378.000000,107.000000 189.500000,107.000000 1.000000,107.000000 
	C1.000000,71.666664 1.000000,36.333332 1.000000,1.000000 
	C197.666672,1.000000 394.333344,1.000000 591.000000,1.000000 
	C591.000000,36.333332 591.000000,71.666664 591.000000,107.000000 
	C583.166687,107.000000 575.333313,107.000000 567.000000,107.000000 
M36.285976,62.973656 
	C35.878460,76.806076 43.255474,86.654739 56.148754,89.491417 
	C67.221039,91.927452 78.752258,85.385857 83.227188,74.129967 
	C87.747711,62.759396 83.146713,51.278076 71.066071,42.411488 
	C71.347466,28.725430 63.885410,18.995773 51.172138,16.472088 
	C40.011311,14.256574 28.182585,21.091028 24.108622,32.108971 
	C19.881334,43.541573 24.771900,55.612965 36.285976,62.973656 
M488.520477,51.947800 
	C484.741852,47.309841 480.803070,42.790573 477.244232,37.989700 
	C475.089111,35.082493 472.794739,33.793018 469.349854,35.138126 
	C469.349854,46.314331 469.349854,57.374283 469.349854,68.452637 
	C471.396667,68.452637 473.148987,68.452637 475.389526,68.452637 
	C475.389526,61.158463 475.389526,54.117916 475.389526,45.595592 
	C481.506561,53.087963 486.557587,59.575005 491.985229,65.729919 
	C493.508759,67.457581 496.139587,68.208725 499.051514,69.853462 
	C499.051514,57.077801 499.051514,46.016685 499.051514,35.027550 
	C496.890015,35.027550 495.000641,35.027550 492.988373,35.027550 
	C492.988373,38.860641 492.988373,42.349991 492.988373,45.839340 
	C492.988373,49.343769 492.988373,52.848198 492.988373,57.496155 
	C491.060516,55.073685 490.027069,53.775074 488.520477,51.947800 
M239.873840,68.746956 
	C245.509872,68.542992 251.194321,68.730736 256.770325,68.041206 
	C264.693573,67.061401 270.091766,60.862087 270.786987,52.863098 
	C271.468140,45.025826 267.039429,37.426243 259.265381,35.844326 
	C252.149414,34.396317 244.666183,34.753063 237.126297,34.301445 
	C237.126297,45.443405 237.068436,55.409943 237.206329,65.373772 
	C237.221924,66.501190 238.340225,67.613335 239.873840,68.746956 
M176.555420,58.952141 
	C182.063950,58.133770 186.627090,59.072044 189.007523,64.958633 
	C190.582855,68.854340 193.799469,69.488388 198.040665,68.306442 
	C195.600418,64.676849 193.241684,61.168499 190.897781,57.682213 
	C196.917679,53.215588 198.717026,49.456017 197.541245,44.147102 
	C196.421738,39.092281 192.996048,35.449917 187.661438,35.034966 
	C181.596970,34.563236 175.467590,34.925968 169.442261,34.925968 
	C169.442261,46.313465 169.442261,57.380333 169.442261,68.368790 
	C171.654373,68.368790 173.542007,68.368790 175.852005,68.368790 
	C175.852005,65.189934 175.852005,62.387493 176.555420,58.952141 
M433.308350,46.521706 
	C432.541534,39.465969 429.155243,35.438854 422.614197,34.943066 
	C416.852112,34.506317 411.030701,34.851707 405.152710,34.851707 
	C405.152710,46.149166 405.152710,57.224995 405.152710,68.510292 
	C407.136566,68.510292 408.879730,68.510292 410.962860,68.510292 
	C411.111969,65.279816 411.253448,62.214962 411.384857,59.367676 
	C417.658264,57.412693 422.047272,59.235699 424.603882,64.895500 
	C426.371704,68.809013 429.256287,69.418427 433.538177,68.193451 
	C431.096893,64.539284 428.833252,61.151020 427.578674,59.273109 
	C429.795868,54.595787 431.529358,50.938938 433.308350,46.521706 
M562.883240,67.991600 
	C564.881592,68.297241 566.880005,68.602882 570.145874,69.102394 
	C568.288391,66.305954 567.146667,64.571548 565.988708,62.848057 
	C564.820801,61.109737 563.636841,59.382236 562.469299,57.663780 
	C568.700989,53.236172 570.531311,48.926529 568.933350,43.040531 
	C567.570068,38.018875 562.903870,34.897728 556.135742,34.720207 
	C551.174561,34.590076 546.207214,34.694710 541.234131,34.694710 
	C541.234131,46.172180 541.234131,57.254112 541.234131,68.489410 
	C543.225037,68.489410 544.962219,68.489410 546.962830,68.489410 
	C547.122986,65.207970 547.272705,62.139549 547.405273,59.422771 
	C554.144287,57.076977 558.210876,59.809528 560.957458,65.373528 
	C561.320496,66.109001 561.907776,66.733826 562.883240,67.991600 
M518.564453,34.642586 
	C515.267761,34.642586 511.971069,34.642586 508.544983,34.642586 
	C508.544983,46.218868 508.544983,57.279819 508.544983,68.475632 
	C517.101135,68.475632 525.352905,68.475632 533.697876,68.475632 
	C533.697876,66.617874 533.697876,65.043587 533.697876,63.031471 
	C527.352051,63.031471 521.262268,63.031471 515.080933,63.031471 
	C515.080933,59.833096 515.080933,57.078518 515.080933,53.773537 
	C520.478027,53.773537 525.690674,53.773537 531.173401,53.773537 
	C531.040466,51.783939 530.945923,50.368076 530.829895,48.631863 
	C525.417297,48.631863 520.317871,48.631863 515.206055,48.631863 
	C515.206055,45.542805 515.206055,42.808834 515.206055,39.759441 
	C521.288574,39.759441 527.052673,39.759441 533.195801,39.759441 
	C533.110535,37.870594 533.040894,36.326916 532.964905,34.642628 
	C528.175659,34.642628 523.855530,34.642628 518.564453,34.642586 
M356.726685,57.485733 
	C362.428986,54.455864 364.537262,50.855511 363.951385,45.147858 
	C363.443665,40.201496 360.094025,35.836460 354.838623,35.289291 
	C348.499573,34.629292 342.039337,35.133007 335.680054,35.133007 
	C335.680054,46.332325 335.680054,57.280014 335.680054,68.445343 
	C337.809692,68.445343 339.691620,68.445343 342.112244,68.445343 
	C342.112244,65.091125 342.112244,62.032661 342.112244,59.382530 
	C347.128998,58.822369 351.568237,58.326698 356.726685,57.485733 
M204.804153,40.645477 
	C204.804153,49.899155 204.804153,59.152836 204.804153,68.506889 
	C213.554123,68.506889 221.647873,68.506889 229.959824,68.506889 
	C229.959824,66.697853 229.959824,65.119652 229.959824,63.105537 
	C223.651566,63.105537 217.563629,63.105537 211.438141,63.105537 
	C211.438141,59.784077 211.438141,56.911442 211.438141,53.691818 
	C216.879898,53.691818 221.983276,53.691818 227.256744,53.691818 
	C227.256744,51.938908 227.256744,50.541813 227.256744,48.633598 
	C221.743744,48.633598 216.502838,48.633598 211.315857,48.633598 
	C211.315857,45.510914 211.315857,42.903217 211.315857,39.824917 
	C217.433136,39.824917 223.347870,39.824917 229.489929,39.824917 
	C229.489929,37.925823 229.489929,36.506676 229.489929,34.953201 
	C221.226196,34.953201 213.160583,34.953201 204.804153,34.953201 
	C204.804153,36.722115 204.804153,38.206650 204.804153,40.645477 
M377.795166,60.864395 
	C380.626129,60.864391 383.489288,61.131893 386.279816,60.795883 
	C389.677368,60.386776 391.632355,61.577759 392.381836,64.861954 
	C393.402893,69.336067 396.428772,69.219803 400.472900,68.220802 
	C395.331177,56.840969 390.320648,45.751472 385.404266,34.870296 
	C379.147156,34.534348 379.129822,34.526466 376.654572,39.975365 
	C372.381042,49.383080 368.131470,58.801674 363.834656,68.297844 
	C368.559937,69.590332 370.986755,68.326744 372.335907,64.082321 
	C372.784454,62.671135 375.304169,61.918293 377.795166,60.864395 
M133.153702,43.912266 
	C129.718292,53.854977 132.445877,62.423878 140.433426,66.782059 
	C148.164490,71.000290 157.940979,69.408501 162.911530,62.952026 
	C161.720337,61.895267 160.516586,60.827358 159.367584,59.808029 
	C152.322281,64.466454 145.416214,64.386192 141.076096,59.753960 
	C137.365784,55.793934 136.930511,49.066040 140.092346,44.548359 
	C144.051865,38.890938 149.658661,38.424995 159.908493,43.070385 
	C161.021484,42.105537 162.225357,41.061901 163.441406,40.007717 
	C153.772552,30.775581 140.602219,32.478790 133.153702,43.912266 
M299.828613,51.521744 
	C299.828613,57.120556 299.828613,62.719368 299.828613,68.493904 
	C302.107178,68.493904 303.846100,68.493904 306.108032,68.493904 
	C306.108032,58.925900 306.108032,49.555431 306.108032,39.830441 
	C310.050995,39.830441 313.473633,39.830441 316.927429,39.830441 
	C316.927429,37.930126 316.927429,36.406372 316.927429,34.987068 
	C307.326202,34.987068 298.098572,34.987068 288.746521,34.987068 
	C288.746521,36.700165 288.746521,38.111439 288.746521,40.076317 
	C292.523468,40.076317 296.070312,40.076317 299.828613,40.076317 
	C299.828613,43.927700 299.828613,47.229572 299.828613,51.521744 
M443.517151,34.694454 
	C441.062500,34.694454 438.607880,34.694454 436.056763,34.694454 
	C436.056763,36.658993 436.056763,38.178112 436.056763,40.101913 
	C439.824463,40.101913 443.239471,40.101913 447.185669,40.101913 
	C447.185669,49.882374 447.185669,59.262600 447.185669,68.492615 
	C449.365021,68.492615 450.984741,68.492615 453.134125,68.492615 
	C453.134125,58.904270 453.134125,49.517078 453.134125,39.774429 
	C457.109375,39.774429 460.542725,39.774429 464.330505,39.774429 
	C464.214600,37.846283 464.122498,36.314007 464.025177,34.694450 
	C457.154327,34.694450 450.832977,34.694450 443.517151,34.694454 
M282.260925,68.741562 
	C282.789673,68.210205 283.775238,67.682686 283.779694,67.146919 
	C283.869934,56.405140 283.847168,45.662415 283.847168,34.967491 
	C281.322784,34.967491 279.403809,34.967491 277.229309,34.967491 
	C277.229309,45.443104 277.349335,55.584187 277.164398,65.719704 
	C277.099487,69.277603 279.231171,68.803268 282.260925,68.741562 
z"/>
<path fill="#1A53EB" opacity="1.000000" stroke="none" 
	d="
M70.887947,43.338638 
	C83.146713,51.278076 87.747711,62.759396 83.227188,74.129967 
	C78.752258,85.385857 67.221039,91.927452 56.148754,89.491417 
	C43.255474,86.654739 35.878460,76.806076 36.490341,62.252357 
	C38.377598,57.817513 39.394360,53.569012 41.867172,50.489834 
	C49.560585,40.909897 59.662029,39.444107 70.887947,43.338638 
z"/>
<path fill="#FE0203" opacity="1.000000" stroke="none" 
	d="
M70.977005,42.875061 
	C59.662029,39.444107 49.560585,40.909897 41.867172,50.489834 
	C39.394360,53.569012 38.377598,57.817513 36.480072,61.823360 
	C24.771900,55.612965 19.881334,43.541573 24.108622,32.108971 
	C28.182585,21.091028 40.011311,14.256574 51.172138,16.472088 
	C63.885410,18.995773 71.347466,28.725430 70.977005,42.875061 
z"/>
<path fill="#070707" opacity="1.000000" stroke="none" 
	d="
M488.757019,52.212135 
	C490.027069,53.775074 491.060516,55.073685 492.988373,57.496155 
	C492.988373,52.848198 492.988373,49.343769 492.988373,45.839340 
	C492.988373,42.349991 492.988373,38.860641 492.988373,35.027550 
	C495.000641,35.027550 496.890015,35.027550 499.051514,35.027550 
	C499.051514,46.016685 499.051514,57.077801 499.051514,69.853462 
	C496.139587,68.208725 493.508759,67.457581 491.985229,65.729919 
	C486.557587,59.575005 481.506561,53.087963 475.389526,45.595592 
	C475.389526,54.117916 475.389526,61.158463 475.389526,68.452637 
	C473.148987,68.452637 471.396667,68.452637 469.349854,68.452637 
	C469.349854,57.374283 469.349854,46.314331 469.349854,35.138126 
	C472.794739,33.793018 475.089111,35.082493 477.244232,37.989700 
	C480.803070,42.790573 484.741852,47.309841 488.757019,52.212135 
z"/>
<path fill="#111111" opacity="1.000000" stroke="none" 
	d="
M239.410522,68.739761 
	C238.340225,67.613335 237.221924,66.501190 237.206329,65.373772 
	C237.068436,55.409943 237.126297,45.443405 237.126297,34.301445 
	C244.666183,34.753063 252.149414,34.396317 259.265381,35.844326 
	C267.039429,37.426243 271.468140,45.025826 270.786987,52.863098 
	C270.091766,60.862087 264.693573,67.061401 256.770325,68.041206 
	C251.194321,68.730736 245.509872,68.542992 239.410522,68.739761 
M260.577087,42.838451 
	C255.500244,38.786045 249.687424,40.040466 243.994904,40.170536 
	C243.994904,47.945625 243.994904,55.352089 243.994904,63.061943 
	C250.890106,62.899139 258.270416,64.936340 262.606964,57.679070 
	C265.480927,52.869495 265.006378,47.801640 260.577087,42.838451 
z"/>
<path fill="#121212" opacity="1.000000" stroke="none" 
	d="
M176.203705,59.268593 
	C175.852005,62.387493 175.852005,65.189934 175.852005,68.368790 
	C173.542007,68.368790 171.654373,68.368790 169.442261,68.368790 
	C169.442261,57.380333 169.442261,46.313465 169.442261,34.925968 
	C175.467590,34.925968 181.596970,34.563236 187.661438,35.034966 
	C192.996048,35.449917 196.421738,39.092281 197.541245,44.147102 
	C198.717026,49.456017 196.917679,53.215588 190.897781,57.682213 
	C193.241684,61.168499 195.600418,64.676849 198.040665,68.306442 
	C193.799469,69.488388 190.582855,68.854340 189.007523,64.958633 
	C186.627090,59.072044 182.063950,58.133770 176.203705,59.268593 
M189.004349,51.694134 
	C189.498779,48.835701 191.376053,45.108105 190.228226,43.281887 
	C186.791397,37.813862 180.893173,40.593166 175.987473,39.891808 
	C175.987473,44.707226 175.987473,48.783134 175.987473,53.709026 
	C180.295563,53.158173 184.285202,52.648037 189.004349,51.694134 
z"/>
<path fill="#090909" opacity="1.000000" stroke="none" 
	d="
M433.285583,46.901901 
	C431.529358,50.938938 429.795868,54.595787 427.578674,59.273109 
	C428.833252,61.151020 431.096893,64.539284 433.538177,68.193451 
	C429.256287,69.418427 426.371704,68.809013 424.603882,64.895500 
	C422.047272,59.235699 417.658264,57.412693 411.384857,59.367676 
	C411.253448,62.214962 411.111969,65.279816 410.962860,68.510292 
	C408.879730,68.510292 407.136566,68.510292 405.152710,68.510292 
	C405.152710,57.224995 405.152710,46.149166 405.152710,34.851707 
	C411.030701,34.851707 416.852112,34.506317 422.614197,34.943066 
	C429.155243,35.438854 432.541534,39.465969 433.285583,46.901901 
M411.778931,52.991226 
	C414.760773,53.053112 417.748291,53.258781 420.723053,53.141495 
	C424.685272,52.985279 426.823730,50.696182 426.961914,46.783936 
	C427.104553,42.745373 424.688721,40.564266 420.964783,40.135899 
	C417.884979,39.781620 414.732056,40.063480 411.231384,40.063480 
	C411.231384,44.305729 411.231384,48.259682 411.778931,52.991226 
z"/>
<path fill="#090909" opacity="1.000000" stroke="none" 
	d="
M562.637207,67.700745 
	C561.907776,66.733826 561.320496,66.109001 560.957458,65.373528 
	C558.210876,59.809528 554.144287,57.076977 547.405273,59.422771 
	C547.272705,62.139549 547.122986,65.207970 546.962830,68.489410 
	C544.962219,68.489410 543.225037,68.489410 541.234131,68.489410 
	C541.234131,57.254112 541.234131,46.172180 541.234131,34.694710 
	C546.207214,34.694710 551.174561,34.590076 556.135742,34.720207 
	C562.903870,34.897728 567.570068,38.018875 568.933350,43.040531 
	C570.531311,48.926529 568.700989,53.236172 562.469299,57.663780 
	C563.636841,59.382236 564.820801,61.109737 565.988708,62.848057 
	C567.146667,64.571548 568.288391,66.305954 570.145874,69.102394 
	C566.880005,68.602882 564.881592,68.297241 562.637207,67.700745 
M557.871765,53.058899 
	C562.000305,52.024811 563.546875,49.139038 562.847168,45.240166 
	C562.151733,41.365627 559.156616,40.034481 555.519043,39.960926 
	C552.795532,39.905853 550.069946,39.950058 547.430176,39.950058 
	C547.430176,44.742023 547.430176,48.807083 547.430176,53.186737 
	C550.787659,53.186737 553.893799,53.186737 557.871765,53.058899 
z"/>
<path fill="#141414" opacity="1.000000" stroke="none" 
	d="
M519.049927,34.642609 
	C523.855530,34.642628 528.175659,34.642628 532.964905,34.642628 
	C533.040894,36.326916 533.110535,37.870594 533.195801,39.759441 
	C527.052673,39.759441 521.288574,39.759441 515.206055,39.759441 
	C515.206055,42.808834 515.206055,45.542805 515.206055,48.631863 
	C520.317871,48.631863 525.417297,48.631863 530.829895,48.631863 
	C530.945923,50.368076 531.040466,51.783939 531.173401,53.773537 
	C525.690674,53.773537 520.478027,53.773537 515.080933,53.773537 
	C515.080933,57.078518 515.080933,59.833096 515.080933,63.031471 
	C521.262268,63.031471 527.352051,63.031471 533.697876,63.031471 
	C533.697876,65.043587 533.697876,66.617874 533.697876,68.475632 
	C525.352905,68.475632 517.101135,68.475632 508.544983,68.475632 
	C508.544983,57.279819 508.544983,46.218868 508.544983,34.642586 
	C511.971069,34.642586 515.267761,34.642586 519.049927,34.642609 
z"/>
<path fill="#121212" opacity="1.000000" stroke="none" 
	d="
M356.367065,57.658379 
	C351.568237,58.326698 347.128998,58.822369 342.112244,59.382530 
	C342.112244,62.032661 342.112244,65.091125 342.112244,68.445343 
	C339.691620,68.445343 337.809692,68.445343 335.680054,68.445343 
	C335.680054,57.280014 335.680054,46.332325 335.680054,35.133007 
	C342.039337,35.133007 348.499573,34.629292 354.838623,35.289291 
	C360.094025,35.836460 363.443665,40.201496 363.951385,45.147858 
	C364.537262,50.855511 362.428986,54.455864 356.367065,57.658379 
M352.830719,52.924026 
	C356.647552,51.746521 358.032990,48.985729 357.410828,45.275753 
	C356.735535,41.248772 353.636902,40.141403 350.077789,39.987469 
	C347.482605,39.875225 344.878662,39.965511 342.251892,39.965511 
	C342.251892,44.654205 342.251892,48.867237 342.251892,53.046432 
	C345.677094,53.046432 348.810425,53.046432 352.830719,52.924026 
z"/>
<path fill="#0D0D0D" opacity="1.000000" stroke="none" 
	d="
M204.804153,40.168331 
	C204.804153,38.206650 204.804153,36.722115 204.804153,34.953201 
	C213.160583,34.953201 221.226196,34.953201 229.489929,34.953201 
	C229.489929,36.506676 229.489929,37.925823 229.489929,39.824917 
	C223.347870,39.824917 217.433136,39.824917 211.315857,39.824917 
	C211.315857,42.903217 211.315857,45.510914 211.315857,48.633598 
	C216.502838,48.633598 221.743744,48.633598 227.256744,48.633598 
	C227.256744,50.541813 227.256744,51.938908 227.256744,53.691818 
	C221.983276,53.691818 216.879898,53.691818 211.438141,53.691818 
	C211.438141,56.911442 211.438141,59.784077 211.438141,63.105537 
	C217.563629,63.105537 223.651566,63.105537 229.959824,63.105537 
	C229.959824,65.119652 229.959824,66.697853 229.959824,68.506889 
	C221.647873,68.506889 213.554123,68.506889 204.804153,68.506889 
	C204.804153,59.152836 204.804153,49.899155 204.804153,40.168331 
z"/>
<path fill="#0D0D0D" opacity="1.000000" stroke="none" 
	d="
M377.336060,60.864433 
	C375.304169,61.918293 372.784454,62.671135 372.335907,64.082321 
	C370.986755,68.326744 368.559937,69.590332 363.834656,68.297844 
	C368.131470,58.801674 372.381042,49.383080 376.654572,39.975365 
	C379.129822,34.526466 379.147156,34.534348 385.404266,34.870296 
	C390.320648,45.751472 395.331177,56.840969 400.472900,68.220802 
	C396.428772,69.219803 393.402893,69.336067 392.381836,64.861954 
	C391.632355,61.577759 389.677368,60.386776 386.279816,60.795883 
	C383.489288,61.131893 380.626129,60.864391 377.336060,60.864433 
M380.362946,44.905525 
	C378.906738,48.377445 377.450500,51.849365 375.907227,55.528908 
	C380.213654,55.528908 384.029083,55.528908 388.406158,55.528908 
	C386.294464,50.677387 384.392303,46.307331 382.104492,41.051247 
	C381.359680,42.809875 381.054291,43.530964 380.362946,44.905525 
z"/>
<path fill="#0D0D0D" opacity="1.000000" stroke="none" 
	d="
M133.357178,43.591263 
	C140.602219,32.478790 153.772552,30.775581 163.441406,40.007717 
	C162.225357,41.061901 161.021484,42.105537 159.908493,43.070385 
	C149.658661,38.424995 144.051865,38.890938 140.092346,44.548359 
	C136.930511,49.066040 137.365784,55.793934 141.076096,59.753960 
	C145.416214,64.386192 152.322281,64.466454 159.367584,59.808029 
	C160.516586,60.827358 161.720337,61.895267 162.911530,62.952026 
	C157.940979,69.408501 148.164490,71.000290 140.433426,66.782059 
	C132.445877,62.423878 129.718292,53.854977 133.357178,43.591263 
z"/>
<path fill="#040404" opacity="1.000000" stroke="none" 
	d="
M299.828613,51.026596 
	C299.828613,47.229572 299.828613,43.927700 299.828613,40.076317 
	C296.070312,40.076317 292.523468,40.076317 288.746521,40.076317 
	C288.746521,38.111439 288.746521,36.700165 288.746521,34.987068 
	C298.098572,34.987068 307.326202,34.987068 316.927429,34.987068 
	C316.927429,36.406372 316.927429,37.930126 316.927429,39.830441 
	C313.473633,39.830441 310.050995,39.830441 306.108032,39.830441 
	C306.108032,49.555431 306.108032,58.925900 306.108032,68.493904 
	C303.846100,68.493904 302.107178,68.493904 299.828613,68.493904 
	C299.828613,62.719368 299.828613,57.120556 299.828613,51.026596 
z"/>
<path fill="#040404" opacity="1.000000" stroke="none" 
	d="
M444.014404,34.694450 
	C450.832977,34.694450 457.154327,34.694450 464.025177,34.694450 
	C464.122498,36.314007 464.214600,37.846283 464.330505,39.774429 
	C460.542725,39.774429 457.109375,39.774429 453.134125,39.774429 
	C453.134125,49.517078 453.134125,58.904270 453.134125,68.492615 
	C450.984741,68.492615 449.365021,68.492615 447.185669,68.492615 
	C447.185669,59.262600 447.185669,49.882374 447.185669,40.101913 
	C443.239471,40.101913 439.824463,40.101913 436.056763,40.101913 
	C436.056763,38.178112 436.056763,36.658993 436.056763,34.694454 
	C438.607880,34.694454 441.062500,34.694454 444.014404,34.694450 
z"/>
<path fill="#181818" opacity="1.000000" stroke="none" 
	d="
M281.824097,68.754913 
	C279.231171,68.803268 277.099487,69.277603 277.164398,65.719704 
	C277.349335,55.584187 277.229309,45.443104 277.229309,34.967491 
	C279.403809,34.967491 281.322784,34.967491 283.847168,34.967491 
	C283.847168,45.662415 283.869934,56.405140 283.779694,67.146919 
	C283.775238,67.682686 282.789673,68.210205 281.824097,68.754913 
z"/>
<path fill="#FDFDFD" opacity="1.000000" stroke="none" 
	d="
M260.854523,43.111481 
	C265.006378,47.801640 265.480927,52.869495 262.606964,57.679070 
	C258.270416,64.936340 250.890106,62.899139 243.994904,63.061943 
	C243.994904,55.352089 243.994904,47.945625 243.994904,40.170536 
	C249.687424,40.040466 255.500244,38.786045 260.854523,43.111481 
z"/>
<path fill="#FDFDFD" opacity="1.000000" stroke="none" 
	d="
M188.639587,51.916016 
	C184.285202,52.648037 180.295563,53.158173 175.987473,53.709026 
	C175.987473,48.783134 175.987473,44.707226 175.987473,39.891808 
	C180.893173,40.593166 186.791397,37.813862 190.228226,43.281887 
	C191.376053,45.108105 189.498779,48.835701 188.639587,51.916016 
z"/>
<path fill="#F7F7F7" opacity="1.000000" stroke="none" 
	d="
M411.505157,52.602428 
	C411.231384,48.259682 411.231384,44.305729 411.231384,40.063480 
	C414.732056,40.063480 417.884979,39.781620 420.964783,40.135899 
	C424.688721,40.564266 427.104553,42.745373 426.961914,46.783936 
	C426.823730,50.696182 424.685272,52.985279 420.723053,53.141495 
	C417.748291,53.258781 414.760773,53.053112 411.505157,52.602428 
z"/>
<path fill="#F7F7F7" opacity="1.000000" stroke="none" 
	d="
M557.435913,53.122818 
	C553.893799,53.186737 550.787659,53.186737 547.430176,53.186737 
	C547.430176,48.807083 547.430176,44.742023 547.430176,39.950058 
	C550.069946,39.950058 552.795532,39.905853 555.519043,39.960926 
	C559.156616,40.034481 562.151733,41.365627 562.847168,45.240166 
	C563.546875,49.139038 562.000305,52.024811 557.435913,53.122818 
z"/>
<path fill="#FBFBFB" opacity="1.000000" stroke="none" 
	d="
M352.387238,52.985229 
	C348.810425,53.046432 345.677094,53.046432 342.251892,53.046432 
	C342.251892,48.867237 342.251892,44.654205 342.251892,39.965511 
	C344.878662,39.965511 347.482605,39.875225 350.077789,39.987469 
	C353.636902,40.141403 356.735535,41.248772 357.410828,45.275753 
	C358.032990,48.985729 356.647552,51.746521 352.387238,52.985229 
z"/>
<path fill="#EDEDED" opacity="1.000000" stroke="none" 
	d="
M380.555908,44.578789 
	C381.054291,43.530964 381.359680,42.809875 382.104492,41.051247 
	C384.392303,46.307331 386.294464,50.677387 388.406158,55.528908 
	C384.029083,55.528908 380.213654,55.528908 375.907227,55.528908 
	C377.450500,51.849365 378.906738,48.377445 380.555908,44.578789 
z"/>
</svg>