<svg version="1.1" id="Layer_1" xmlns="http://www.w3.org/2000/svg" xmlns:xlink="http://www.w3.org/1999/xlink" x="0px" y="0px"
	 width="100%" viewBox="0 0 871 202" enable-background="new 0 0 871 202" xml:space="preserve">
<path fill="#2191FF" opacity="1.000000" stroke="none" 
	d="
M599.000000,203.000000 
	C399.379700,203.000000 200.259399,203.000000 1.069554,203.000000 
	C1.069554,135.728775 1.069554,68.457458 1.069554,1.093068 
	C291.333313,1.093068 581.666626,1.093068 871.968018,1.093068 
	C871.968018,68.407318 871.968018,135.703674 871.968018,203.000000 
	C781.124023,203.000000 690.312012,203.000000 599.000000,203.000000 
M553.437744,108.500206 
	C553.435059,84.675537 553.486755,60.850674 553.404114,37.026279 
	C553.368652,26.795849 546.284180,19.207834 536.480469,19.184576 
	C493.829285,19.083391 451.177673,19.164499 408.526398,19.086355 
	C405.063873,19.080011 403.914337,20.275061 403.920593,23.746790 
	C404.005890,71.063072 404.010986,118.379631 403.912231,165.695862 
	C403.904663,169.320084 405.260986,170.229660 408.609680,170.154648 
	C416.602753,169.975601 424.619415,169.785645 432.593781,170.212479 
	C437.718536,170.486771 439.045593,168.823242 439.014740,163.775848 
	C438.801086,128.789642 438.902100,93.801521 438.902100,58.814018 
	C438.902100,57.041256 438.902100,55.268494 438.902100,53.353298 
	C446.563477,53.353298 453.652710,53.353298 461.282684,53.353298 
	C461.282684,55.506557 461.282654,57.458492 461.282654,59.410423 
	C461.282715,94.231323 461.397491,129.053009 461.159058,163.872269 
	C461.123291,169.090515 462.721863,170.461273 467.679901,170.201660 
	C475.156738,169.810181 482.683838,169.815948 490.161316,170.201065 
	C494.999451,170.450256 496.310028,168.879318 496.282990,164.070648 
	C496.085327,128.917648 496.176605,93.763016 496.176636,58.608906 
	C496.176636,56.850273 496.176636,55.091637 496.176636,53.458542 
	C504.090302,53.458542 511.345123,53.458542 519.159180,53.458542 
	C519.159180,92.341568 519.159180,130.902084 519.159180,169.732819 
	C530.774414,169.732819 541.816162,169.732819 553.437988,169.732819 
	C553.437988,149.414001 553.437988,129.457108 553.437744,108.500206 
M221.526688,126.219856 
	C237.954376,126.219856 254.382065,126.219856 270.914703,126.219856 
	C270.914703,129.828278 270.914703,132.727158 270.914703,136.101532 
	C268.765869,136.101532 266.969849,136.101547 265.173798,136.101532 
	C249.019470,136.101456 232.863998,136.204819 216.711655,136.025284 
	C212.888855,135.982788 211.285522,136.907013 211.527481,141.024902 
	C211.859039,146.667755 211.609924,152.344727 211.609772,158.007065 
	C211.609680,161.911041 211.609756,165.815002 211.609756,169.820831 
	C213.648529,169.951202 214.794952,170.087952 215.941422,170.088470 
	C240.089645,170.099304 264.237976,170.137848 288.386017,170.072098 
	C298.021912,170.045868 305.511505,162.721710 305.582275,153.058334 
	C305.718872,134.406906 305.554199,115.753334 305.679657,97.101761 
	C305.704407,93.423233 304.440765,92.096596 300.746033,92.166618 
	C291.256683,92.346474 281.761658,92.226387 272.268921,92.226295 
	C263.656281,92.226219 255.043625,92.226273 246.316254,92.226273 
	C246.316254,89.178215 246.316254,86.653763 246.316254,84.044426 
	C247.689926,83.981468 248.677979,83.897202 249.666061,83.896713 
	C266.486542,83.888374 283.308105,83.788879 300.126770,83.964294 
	C304.139984,84.006157 306.007202,82.939705 305.681244,78.653366 
	C305.404236,75.010590 305.665802,71.329445 305.617249,67.666222 
	C305.477631,57.132633 298.215607,49.926182 287.622559,49.910152 
	C263.973999,49.874367 240.325378,49.892242 216.676788,49.908669 
	C215.089737,49.909771 213.502823,50.081711 211.907349,50.174690 
	C211.907349,75.708199 211.907349,100.622658 211.907349,126.219887 
	C214.975189,126.219887 217.754639,126.219887 221.526688,126.219856 
M570.396362,57.794025 
	C570.398315,65.459610 570.493408,73.126839 570.358154,80.790009 
	C570.301025,84.024757 571.505371,85.207504 574.756409,85.116806 
	C581.250366,84.935646 587.753052,85.066254 594.252136,85.066772 
	C603.197571,85.067482 612.142944,85.066940 620.956116,85.066940 
	C622.698242,93.396324 622.422546,93.768456 615.070557,93.767555 
	C607.071655,93.766579 599.072754,93.767303 591.073853,93.767288 
	C584.437866,93.767281 577.801819,93.767281 570.813477,93.767281 
	C570.813477,119.434242 570.813477,144.489594 570.813477,170.098404 
	C572.866394,170.098404 574.502869,170.098450 576.139343,170.098404 
	C596.636475,170.097870 617.133667,170.117874 637.630798,170.088669 
	C648.924988,170.072571 655.953857,163.038330 655.964539,151.727371 
	C655.990417,124.397873 655.988647,97.068306 655.965149,69.738800 
	C655.955261,58.219467 648.816345,51.086681 637.310669,51.074001 
	C616.980164,51.051594 596.648193,51.196861 576.320251,50.967346 
	C571.734009,50.915558 569.702942,52.208229 570.396362,57.794025 
M114.206886,159.866089 
	C117.823334,166.897842 123.382118,170.261246 131.488998,170.171082 
	C151.803574,169.945160 172.122360,170.104843 192.439453,170.084991 
	C194.197495,170.083267 195.955368,169.897781 198.021927,169.780075 
	C198.021927,159.259048 197.961838,149.287277 198.059982,139.317062 
	C198.088013,136.468292 196.577911,136.069046 194.279297,136.083603 
	C185.952957,136.136383 177.626068,136.103073 169.299393,136.102676 
	C162.029266,136.102341 154.759140,136.102615 147.391357,136.102615 
	C147.391357,133.064484 147.391357,130.653778 147.391357,127.758812 
	C149.441208,127.758812 151.232010,127.758858 153.022797,127.758797 
	C166.345490,127.758331 179.669861,127.640656 192.989822,127.831039 
	C196.828094,127.885895 198.161774,126.888817 198.124191,122.800034 
	C197.920670,100.652931 197.931900,78.502197 198.113358,56.354710 
	C198.146637,52.291477 197.132355,50.927162 192.874619,50.971703 
	C172.393219,51.185966 151.908325,51.047058 131.424728,51.077335 
	C119.937508,51.094315 113.011986,57.961105 113.004753,69.311890 
	C112.987137,96.956467 112.978249,124.601112 113.036453,152.245575 
	C113.041290,154.543076 113.579048,156.839447 114.206886,159.866089 
M834.022583,54.783783 
	C834.521851,50.902306 831.958557,51.043621 829.292175,51.048225 
	C808.459473,51.084229 787.626648,51.030872 766.794067,51.085167 
	C756.034302,51.113213 749.011536,58.199650 749.001587,68.954529 
	C748.976013,96.620399 748.980896,124.286308 748.997742,151.952194 
	C749.004639,163.281738 755.667175,170.058334 766.903137,170.082230 
	C787.569153,170.126205 808.235352,170.103806 828.901428,170.082932 
	C830.497498,170.081314 832.093384,169.874207 834.018555,169.739609 
	C834.018555,159.272247 833.947327,149.295074 834.058533,139.319931 
	C834.095642,135.991043 832.051575,136.088058 829.770569,136.093796 
	C820.604187,136.116867 811.437744,136.102829 802.271301,136.102661 
	C795.998779,136.102524 789.726318,136.102631 783.393555,136.102631 
	C783.393555,133.037811 783.393555,130.624588 783.393555,127.758797 
	C785.454529,127.758797 787.254028,127.758858 789.053528,127.758789 
	C802.386475,127.758301 815.721436,127.629829 829.051208,127.836128 
	C832.991333,127.897110 834.147644,126.707802 834.114197,122.727539 
	C833.926758,100.396408 834.023560,78.062881 834.022583,54.783783 
M85.219185,72.500610 
	C85.219185,66.085594 85.219185,59.670570 85.219185,52.753860 
	C95.573196,52.753860 105.153976,52.753860 115.018906,52.753860 
	C115.018906,42.246002 115.136154,32.261246 114.850754,22.288013 
	C114.819717,21.203686 112.469078,19.278236 111.185188,19.270535 
	C82.190765,19.096622 53.194988,19.164740 24.199675,19.096661 
	C20.926140,19.088974 19.817432,20.402939 19.868614,23.579617 
	C20.000137,31.742847 20.078966,39.914764 19.833809,48.072842 
	C19.715490,52.010204 21.020121,53.332088 24.979130,53.209194 
	C33.261078,52.952110 41.556568,53.131290 50.228733,53.131290 
	C50.228733,55.431438 50.228733,57.228840 50.228729,59.026241 
	C50.228718,92.354370 50.228115,125.682503 50.229790,159.010635 
	C50.229923,161.676804 50.061161,164.362885 50.345345,166.999344 
	C50.458652,168.050568 51.604248,169.861938 52.253876,169.850464 
	C59.528549,169.722168 67.140656,170.542404 73.981110,168.648422 
	C82.257706,166.356812 85.174339,158.799316 85.192924,150.488251 
	C85.250313,124.825714 85.217224,99.162979 85.219185,72.500610 
M369.696564,117.500107 
	C369.696564,106.413864 369.696564,95.327614 369.696564,83.893692 
	C374.433197,83.893692 378.420135,83.701569 382.379608,83.948784 
	C386.190094,84.186707 387.276917,82.606667 387.183014,78.971817 
	C386.972107,70.810745 386.991577,62.637661 387.176239,54.475323 
	C387.253296,51.069157 386.245422,49.620239 382.655121,49.836727 
	C378.423309,50.091900 374.164337,49.896572 370.011841,49.896572 
	C369.849854,48.629063 369.733307,48.135036 369.731628,47.640625 
	C369.710388,41.307602 369.699707,34.974518 369.697845,28.641453 
	C369.693848,15.139170 369.696625,15.139167 356.451263,15.141587 
	C355.617950,15.141739 354.784607,15.138206 353.951324,15.142767 
	C342.234100,15.206883 335.020721,22.419762 334.936920,34.195675 
	C334.900574,39.306351 334.930847,44.417496 334.930847,50.034718 
	C328.962555,50.034718 323.546021,50.034718 317.479767,50.034718 
	C317.479767,60.674953 317.358948,70.806526 317.663879,80.925278 
	C317.694885,81.953690 320.222168,83.621056 321.703613,83.756027 
	C325.942413,84.142227 330.239197,83.891930 334.927521,83.891930 
	C334.927521,86.330620 334.927368,88.128273 334.927551,89.925934 
	C334.929443,110.592224 334.868896,131.258789 334.958923,151.924698 
	C335.006226,162.776382 342.409454,170.040314 353.175140,170.098221 
	C357.008270,170.118851 360.859192,169.872147 364.670105,170.163849 
	C368.690430,170.471619 369.807312,168.854355 369.765259,164.998520 
	C369.596191,149.500641 369.696014,133.999832 369.696564,117.500107 
M685.676147,41.434929 
	C685.676147,44.195423 685.676147,46.955914 685.676147,49.902565 
	C680.818298,49.902565 676.653992,50.053253 672.506470,49.854023 
	C669.292847,49.699646 668.041138,50.828209 668.101562,54.126049 
	C668.257202,62.615276 668.246277,71.110764 668.107483,79.600563 
	C668.053589,82.896034 669.394287,84.045425 672.567383,83.927879 
	C676.815735,83.770508 681.074402,83.888924 685.676208,83.888924 
	C685.676208,86.431442 685.676086,88.236732 685.676270,90.042023 
	C685.678711,110.689430 685.614380,131.337143 685.710815,151.984116 
	C685.761475,162.832413 693.153564,170.040756 703.949646,170.094681 
	C707.446289,170.112152 710.975891,169.795609 714.432068,170.170090 
	C719.449219,170.713699 720.519531,168.549240 720.482300,163.907883 
	C720.283142,139.099274 720.388672,114.288239 720.388794,89.478043 
	C720.388794,87.718636 720.388794,85.959229 720.388794,83.888229 
	C725.255493,83.888229 729.410889,83.767967 733.555481,83.926872 
	C736.780518,84.050522 737.992554,82.786018 737.936951,79.538200 
	C737.791687,71.048615 737.773621,62.552574 737.945129,54.063961 
	C738.013367,50.683975 736.625488,49.720074 733.488281,49.855549 
	C729.233276,50.039295 724.964417,49.901279 720.387634,49.901279 
	C720.387634,39.980522 720.179993,30.676430 720.475220,21.388323 
	C720.622864,16.742363 719.411377,14.553880 714.378174,15.073782 
	C710.753418,15.448194 707.058960,15.176894 703.395996,15.143856 
	C698.263916,15.097569 694.159851,17.128077 690.559937,20.770613 
	C684.963501,26.433382 685.664001,33.495197 685.676147,41.434929 
z"/>
<path fill="#FDFEFF" opacity="1.000000" stroke="none" 
	d="
M553.437866,109.000214 
	C553.437988,129.457108 553.437988,149.414001 553.437988,169.732819 
	C541.816162,169.732819 530.774414,169.732819 519.159180,169.732819 
	C519.159180,130.902084 519.159180,92.341568 519.159180,53.458542 
	C511.345123,53.458542 504.090302,53.458542 496.176636,53.458542 
	C496.176636,55.091637 496.176636,56.850273 496.176636,58.608906 
	C496.176605,93.763016 496.085327,128.917648 496.282990,164.070648 
	C496.310028,168.879318 494.999451,170.450256 490.161316,170.201065 
	C482.683838,169.815948 475.156738,169.810181 467.679901,170.201660 
	C462.721863,170.461273 461.123291,169.090515 461.159058,163.872269 
	C461.397491,129.053009 461.282715,94.231323 461.282654,59.410423 
	C461.282654,57.458492 461.282684,55.506557 461.282684,53.353298 
	C453.652710,53.353298 446.563477,53.353298 438.902100,53.353298 
	C438.902100,55.268494 438.902100,57.041256 438.902100,58.814018 
	C438.902100,93.801521 438.801086,128.789642 439.014740,163.775848 
	C439.045593,168.823242 437.718536,170.486771 432.593781,170.212479 
	C424.619415,169.785645 416.602753,169.975601 408.609680,170.154648 
	C405.260986,170.229660 403.904663,169.320084 403.912231,165.695862 
	C404.010986,118.379631 404.005890,71.063072 403.920593,23.746790 
	C403.914337,20.275061 405.063873,19.080011 408.526398,19.086355 
	C451.177673,19.164499 493.829285,19.083391 536.480469,19.184576 
	C546.284180,19.207834 553.368652,26.795849 553.404114,37.026279 
	C553.486755,60.850674 553.435059,84.675537 553.437866,109.000214 
z"/>
<path fill="#FDFEFF" opacity="1.000000" stroke="none" 
	d="
M221.030396,126.219872 
	C217.754639,126.219887 214.975189,126.219887 211.907349,126.219887 
	C211.907349,100.622658 211.907349,75.708199 211.907349,50.174690 
	C213.502823,50.081711 215.089737,49.909771 216.676788,49.908669 
	C240.325378,49.892242 263.973999,49.874367 287.622559,49.910152 
	C298.215607,49.926182 305.477631,57.132633 305.617249,67.666222 
	C305.665802,71.329445 305.404236,75.010590 305.681244,78.653366 
	C306.007202,82.939705 304.139984,84.006157 300.126770,83.964294 
	C283.308105,83.788879 266.486542,83.888374 249.666061,83.896713 
	C248.677979,83.897202 247.689926,83.981468 246.316254,84.044426 
	C246.316254,86.653763 246.316254,89.178215 246.316254,92.226273 
	C255.043625,92.226273 263.656281,92.226219 272.268921,92.226295 
	C281.761658,92.226387 291.256683,92.346474 300.746033,92.166618 
	C304.440765,92.096596 305.704407,93.423233 305.679657,97.101761 
	C305.554199,115.753334 305.718872,134.406906 305.582275,153.058334 
	C305.511505,162.721710 298.021912,170.045868 288.386017,170.072098 
	C264.237976,170.137848 240.089645,170.099304 215.941422,170.088470 
	C214.794952,170.087952 213.648529,169.951202 211.609756,169.820831 
	C211.609756,165.815002 211.609680,161.911041 211.609772,158.007065 
	C211.609924,152.344727 211.859039,146.667755 211.527481,141.024902 
	C211.285522,136.907013 212.888855,135.982788 216.711655,136.025284 
	C232.863998,136.204819 249.019470,136.101456 265.173798,136.101532 
	C266.969849,136.101547 268.765869,136.101532 270.914703,136.101532 
	C270.914703,132.727158 270.914703,129.828278 270.914703,126.219856 
	C254.382065,126.219856 237.954376,126.219856 221.030396,126.219872 
z"/>
<path fill="#FDFEFF" opacity="1.000000" stroke="none" 
	d="
M570.396729,57.329987 
	C569.702942,52.208229 571.734009,50.915558 576.320251,50.967346 
	C596.648193,51.196861 616.980164,51.051594 637.310669,51.074001 
	C648.816345,51.086681 655.955261,58.219467 655.965149,69.738800 
	C655.988647,97.068306 655.990417,124.397873 655.964539,151.727371 
	C655.953857,163.038330 648.924988,170.072571 637.630798,170.088669 
	C617.133667,170.117874 596.636475,170.097870 576.139343,170.098404 
	C574.502869,170.098450 572.866394,170.098404 570.813477,170.098404 
	C570.813477,144.489594 570.813477,119.434242 570.813477,93.767281 
	C577.801819,93.767281 584.437866,93.767281 591.073853,93.767288 
	C599.072754,93.767303 607.071655,93.766579 615.070557,93.767555 
	C622.422546,93.768456 622.698242,93.396324 620.956116,85.066940 
	C612.142944,85.066940 603.197571,85.067482 594.252136,85.066772 
	C587.753052,85.066254 581.250366,84.935646 574.756409,85.116806 
	C571.505371,85.207504 570.301025,84.024757 570.358154,80.790009 
	C570.493408,73.126839 570.398315,65.459610 570.396729,57.329987 
M621.740845,130.120590 
	C620.920105,129.324478 620.132935,127.885170 619.272949,127.840187 
	C614.828918,127.607758 610.366150,127.732246 605.730591,127.732246 
	C605.730591,130.769455 605.730591,133.301453 605.730591,135.730560 
	C611.168457,135.730560 616.233826,135.730560 621.529175,135.730560 
	C621.617676,133.878479 621.687927,132.408890 621.740845,130.120590 
z"/>
<path fill="#FEFEFF" opacity="1.000000" stroke="none" 
	d="
M114.038048,159.501221 
	C113.579048,156.839447 113.041290,154.543076 113.036453,152.245575 
	C112.978249,124.601112 112.987137,96.956467 113.004753,69.311890 
	C113.011986,57.961105 119.937508,51.094315 131.424728,51.077335 
	C151.908325,51.047058 172.393219,51.185966 192.874619,50.971703 
	C197.132355,50.927162 198.146637,52.291477 198.113358,56.354710 
	C197.931900,78.502197 197.920670,100.652931 198.124191,122.800034 
	C198.161774,126.888817 196.828094,127.885895 192.989822,127.831039 
	C179.669861,127.640656 166.345490,127.758331 153.022797,127.758797 
	C151.232010,127.758858 149.441208,127.758812 147.391357,127.758812 
	C147.391357,130.653778 147.391357,133.064484 147.391357,136.102615 
	C154.759140,136.102615 162.029266,136.102341 169.299393,136.102676 
	C177.626068,136.103073 185.952957,136.136383 194.279297,136.083603 
	C196.577911,136.069046 198.088013,136.468292 198.059982,139.317062 
	C197.961838,149.287277 198.021927,159.259048 198.021927,169.780075 
	C195.955368,169.897781 194.197495,170.083267 192.439453,170.084991 
	C172.122360,170.104843 151.803574,169.945160 131.488998,170.171082 
	C123.382118,170.261246 117.823334,166.897842 114.038048,159.501221 
M153.556458,85.037460 
	C151.467255,85.037460 149.378036,85.037460 147.379059,85.037460 
	C147.379059,88.312492 147.379059,90.892487 147.379059,93.516243 
	C152.728226,93.516243 157.782333,93.516243 163.147400,93.516243 
	C163.147400,90.659554 163.147400,88.095032 163.147400,85.037476 
	C160.077316,85.037476 157.293198,85.037476 153.556458,85.037460 
z"/>
<path fill="#FEFEFF" opacity="1.000000" stroke="none" 
	d="
M834.023010,55.256981 
	C834.023560,78.062881 833.926758,100.396408 834.114197,122.727539 
	C834.147644,126.707802 832.991333,127.897110 829.051208,127.836128 
	C815.721436,127.629829 802.386475,127.758301 789.053528,127.758789 
	C787.254028,127.758858 785.454529,127.758797 783.393555,127.758797 
	C783.393555,130.624588 783.393555,133.037811 783.393555,136.102631 
	C789.726318,136.102631 795.998779,136.102524 802.271301,136.102661 
	C811.437744,136.102829 820.604187,136.116867 829.770569,136.093796 
	C832.051575,136.088058 834.095642,135.991043 834.058533,139.319931 
	C833.947327,149.295074 834.018555,159.272247 834.018555,169.739609 
	C832.093384,169.874207 830.497498,170.081314 828.901428,170.082932 
	C808.235352,170.103806 787.569153,170.126205 766.903137,170.082230 
	C755.667175,170.058334 749.004639,163.281738 748.997742,151.952194 
	C748.980896,124.286308 748.976013,96.620399 749.001587,68.954529 
	C749.011536,58.199650 756.034302,51.113213 766.794067,51.085167 
	C787.626648,51.030872 808.459473,51.084229 829.292175,51.048225 
	C831.958557,51.043621 834.521851,50.902306 834.023010,55.256981 
M784.841370,85.055847 
	C784.077332,87.809906 783.313293,90.563957 782.520020,93.423523 
	C788.883301,93.423523 793.927185,93.423523 799.066162,93.423523 
	C799.066162,90.465508 799.066162,87.905067 799.066162,85.040199 
	C794.387634,85.040199 790.083679,85.040199 784.841370,85.055847 
z"/>
<path fill="#FCFEFF" opacity="1.000000" stroke="none" 
	d="
M85.219231,73.000465 
	C85.217224,99.162979 85.250313,124.825714 85.192924,150.488251 
	C85.174339,158.799316 82.257706,166.356812 73.981110,168.648422 
	C67.140656,170.542404 59.528549,169.722168 52.253876,169.850464 
	C51.604248,169.861938 50.458652,168.050568 50.345345,166.999344 
	C50.061161,164.362885 50.229923,161.676804 50.229790,159.010635 
	C50.228115,125.682503 50.228718,92.354370 50.228729,59.026241 
	C50.228733,57.228840 50.228733,55.431438 50.228733,53.131290 
	C41.556568,53.131290 33.261078,52.952110 24.979130,53.209194 
	C21.020121,53.332088 19.715490,52.010204 19.833809,48.072842 
	C20.078966,39.914764 20.000137,31.742847 19.868614,23.579617 
	C19.817432,20.402939 20.926140,19.088974 24.199675,19.096661 
	C53.194988,19.164740 82.190765,19.096622 111.185188,19.270535 
	C112.469078,19.278236 114.819717,21.203686 114.850754,22.288013 
	C115.136154,32.261246 115.018906,42.246002 115.018906,52.753860 
	C105.153976,52.753860 95.573196,52.753860 85.219185,52.753860 
	C85.219185,59.670570 85.219185,66.085594 85.219231,73.000465 
z"/>
<path fill="#FCFDFF" opacity="1.000000" stroke="none" 
	d="
M369.696533,118.000107 
	C369.696014,133.999832 369.596191,149.500641 369.765259,164.998520 
	C369.807312,168.854355 368.690430,170.471619 364.670105,170.163849 
	C360.859192,169.872147 357.008270,170.118851 353.175140,170.098221 
	C342.409454,170.040314 335.006226,162.776382 334.958923,151.924698 
	C334.868896,131.258789 334.929443,110.592224 334.927551,89.925934 
	C334.927368,88.128273 334.927521,86.330620 334.927521,83.891930 
	C330.239197,83.891930 325.942413,84.142227 321.703613,83.756027 
	C320.222168,83.621056 317.694885,81.953690 317.663879,80.925278 
	C317.358948,70.806526 317.479767,60.674953 317.479767,50.034718 
	C323.546021,50.034718 328.962555,50.034718 334.930847,50.034718 
	C334.930847,44.417496 334.900574,39.306351 334.936920,34.195675 
	C335.020721,22.419762 342.234100,15.206883 353.951324,15.142767 
	C354.784607,15.138206 355.617950,15.141739 356.451263,15.141587 
	C369.696625,15.139167 369.693848,15.139170 369.697845,28.641453 
	C369.699707,34.974518 369.710388,41.307602 369.731628,47.640625 
	C369.733307,48.135036 369.849854,48.629063 370.011841,49.896572 
	C374.164337,49.896572 378.423309,50.091900 382.655121,49.836727 
	C386.245422,49.620239 387.253296,51.069157 387.176239,54.475323 
	C386.991577,62.637661 386.972107,70.810745 387.183014,78.971817 
	C387.276917,82.606667 386.190094,84.186707 382.379608,83.948784 
	C378.420135,83.701569 374.433197,83.893692 369.696564,83.893692 
	C369.696564,95.327614 369.696564,106.413864 369.696533,118.000107 
z"/>
<path fill="#FEFEFF" opacity="1.000000" stroke="none" 
	d="
M685.676086,40.947403 
	C685.664001,33.495197 684.963501,26.433382 690.559937,20.770613 
	C694.159851,17.128077 698.263916,15.097569 703.395996,15.143856 
	C707.058960,15.176894 710.753418,15.448194 714.378174,15.073782 
	C719.411377,14.553880 720.622864,16.742363 720.475220,21.388323 
	C720.179993,30.676430 720.387634,39.980522 720.387634,49.901279 
	C724.964417,49.901279 729.233276,50.039295 733.488281,49.855549 
	C736.625488,49.720074 738.013367,50.683975 737.945129,54.063961 
	C737.773621,62.552574 737.791687,71.048615 737.936951,79.538200 
	C737.992554,82.786018 736.780518,84.050522 733.555481,83.926872 
	C729.410889,83.767967 725.255493,83.888229 720.388794,83.888229 
	C720.388794,85.959229 720.388794,87.718636 720.388794,89.478043 
	C720.388672,114.288239 720.283142,139.099274 720.482300,163.907883 
	C720.519531,168.549240 719.449219,170.713699 714.432068,170.170090 
	C710.975891,169.795609 707.446289,170.112152 703.949646,170.094681 
	C693.153564,170.040756 685.761475,162.832413 685.710815,151.984116 
	C685.614380,131.337143 685.678711,110.689430 685.676270,90.042023 
	C685.676086,88.236732 685.676208,86.431442 685.676208,83.888924 
	C681.074402,83.888924 676.815735,83.770508 672.567383,83.927879 
	C669.394287,84.045425 668.053589,82.896034 668.107483,79.600563 
	C668.246277,71.110764 668.257202,62.615276 668.101562,54.126049 
	C668.041138,50.828209 669.292847,49.699646 672.506470,49.854023 
	C676.653992,50.053253 680.818298,49.902565 685.676147,49.902565 
	C685.676147,46.955914 685.676147,44.195423 685.676086,40.947403 
z"/>
<path fill="#2B95FF" opacity="1.000000" stroke="none" 
	d="
M621.749512,130.529938 
	C621.687927,132.408890 621.617676,133.878479 621.529175,135.730560 
	C616.233826,135.730560 611.168457,135.730560 605.730591,135.730560 
	C605.730591,133.301453 605.730591,130.769455 605.730591,127.732246 
	C610.366150,127.732246 614.828918,127.607758 619.272949,127.840187 
	C620.132935,127.885170 620.920105,129.324478 621.749512,130.529938 
z"/>
<path fill="#2D95FF" opacity="1.000000" stroke="none" 
	d="
M154.032776,85.037468 
	C157.293198,85.037476 160.077316,85.037476 163.147400,85.037476 
	C163.147400,88.095032 163.147400,90.659554 163.147400,93.516243 
	C157.782333,93.516243 152.728226,93.516243 147.379059,93.516243 
	C147.379059,90.892487 147.379059,88.312492 147.379059,85.037460 
	C149.378036,85.037460 151.467255,85.037460 154.032776,85.037468 
z"/>
<path fill="#2D95FF" opacity="1.000000" stroke="none" 
	d="
M785.310547,85.048019 
	C790.083679,85.040199 794.387634,85.040199 799.066162,85.040199 
	C799.066162,87.905067 799.066162,90.465508 799.066162,93.423523 
	C793.927185,93.423523 788.883301,93.423523 782.520020,93.423523 
	C783.313293,90.563957 784.077332,87.809906 785.310547,85.048019 
z"/>
</svg>